<?xml version="1.0" encoding="UTF-8"?>
<!DOCTYPE svg PUBLIC "-//W3C//DTD SVG 1.1//EN" "http://www.w3.org/Graphics/SVG/1.1/DTD/svg11.dtd">
<!-- Creator: CorelDRAW 2018 (64-Bit) -->
<svg xmlns="http://www.w3.org/2000/svg" xml:space="preserve" width="43.3494mm" height="43.3494mm" version="1.1" style="shape-rendering:geometricPrecision; text-rendering:geometricPrecision; image-rendering:optimizeQuality; fill-rule:evenodd; clip-rule:evenodd"
viewBox="0 0 2464.74 2464.74"
 xmlns:xlink="http://www.w3.org/1999/xlink">
 <defs>
  <style type="text/css">
   <![CDATA[
    .str0 {stroke:#51E3EC;stroke-width:56.86;stroke-linecap:round;stroke-linejoin:round;stroke-miterlimit:22.9256}
    .fil0 {fill:none}
   ]]>
  </style>
 </defs>
 <g id="Слой_x0020_1">
  <metadata id="CorelCorpID_0Corel-Layer"/>
  <g id="_1651064077488">
   <path class="fil0" d="M-0 0c821.58,0 1643.16,0 2464.74,0 0,821.58 0,1643.16 0,2464.74 -821.58,0 -1643.16,0 -2464.74,0 0,-821.58 0,-1643.16 0,-2464.74z"/>
   <polygon class="fil0 str0" points="1232.37,228.58 1338.41,435.94 1568.39,472.71 1403.94,637.64 1440.04,867.72 1232.37,762.29 1024.7,867.72 1060.8,637.63 896.35,472.71 1126.34,435.94 "/>
   <polyline class="fil0 str0" points="887.14,1359.75 196.68,1359.75 196.68,2268.06 887.14,2268.06 887.14,1514.72 "/>
   <path class="fil0 str0" d="M887.14 2268.06l690.47 0m0 -592.39l0 -609.26 -690.47 0 0 293.34"/>
   <polyline class="fil0 str0" points="1577.6,2268.06 2268.06,2268.06 2268.06,1675.67 1577.6,1675.67 1577.6,2130.02 "/>
  </g>
 </g>
</svg>
